<?xml version="1.0" encoding="utf-8"?>
<!-- Generator: Adobe Illustrator 27.5.0, SVG Export Plug-In . SVG Version: 6.00 Build 0)  -->
<svg version="1.1" xmlns="http://www.w3.org/2000/svg" xmlns:xlink="http://www.w3.org/1999/xlink" x="0px" y="0px"
	 viewBox="0 0 750 500" style="enable-background:new 0 0 750 500;" xml:space="preserve">
<g id="BACKGROUND">
	<rect style="fill:#F1EFEE;" width="750" height="500"/>
</g>
<g id="OBJECTS">
	<g>
		<g>
			<g>
				<path style="fill:#1E0A05;" d="M266.493,100.566c0,0,26.042-12.929,19.856,19.096c-5.559,28.78,7.352,26.98,7.352,26.98
					s-32.708,7.384-23.563-29.05c0,0,3.413-11.554-3.646-12.528V100.566z"/>
				<circle style="fill:#E16536;" cx="263.992" cy="102.883" r="5.3"/>
			</g>
			<path style="fill:#1E0A05;" d="M244.18,85.887c0,0-14.276-4.207-21.194,1.941c-10.131,9.004,2.393,15.799,2.393,15.799
				L244.18,85.887z"/>
			
				<ellipse transform="matrix(0.0366 -0.9993 0.9993 0.0366 128.6613 346.8765)" style="fill:#1E0A05;" cx="244.231" cy="106.711" rx="20.807" ry="21.802"/>
			<circle style="fill:#DE924B;" cx="223.581" cy="113.769" r="5.642"/>
			<polygon style="fill:#ECAC69;" points="236.624,126.829 236.278,148.343 252.234,148.016 250.04,115.384 			"/>
			<polygon style="fill:#1E0A05;" points="236.441,138.174 248.382,125.402 236.624,126.829 			"/>
			<path style="fill:#ECAC69;" d="M225.723,93.702c-1.466,1.15-2.433,2.804-2.864,4.61c-1.276,5.354-3.742,14.78-2.042,20.575
				c2.21,7.536,8.064,13.037,17.902,11.537c0,0,11.752-0.753,14.702-15.496C258.123,91.44,238.278,83.855,225.723,93.702z"/>
			<g>
				
					<path style="fill:none;stroke:#1E0A05;stroke-width:0.6768;stroke-linecap:round;stroke-linejoin:round;stroke-miterlimit:10;" d="
					M226.886,113.027l-0.99,2.418c-0.079,0.305,0.096,0.618,0.397,0.711l1.382,0.308"/>
				<circle style="fill:#1E0A05;" cx="234.414" cy="110.558" r="1.376"/>
				<path style="fill:#1E0A05;" d="M224.762,110.083c0,0.705-0.572,1.276-1.276,1.276c-0.705,0-1.276-0.571-1.276-1.276
					c0-0.705,0.571-1.276,1.276-1.276C224.19,108.807,224.762,109.378,224.762,110.083z"/>
				
					<path style="fill:none;stroke:#1E0A05;stroke-width:0.6768;stroke-linecap:round;stroke-linejoin:round;stroke-miterlimit:10;" d="
					M226.304,119.707c0,0,4.181,1.846,7.645-1.031"/>
				<path style="fill:#1E0A05;" d="M225.404,102.545c0,0,0.514,1.547-1.413,1.863c-1.463,0.24-2.392,0.37-3.211,0.725
					c-0.465,0.201-1.007,0.038-1.284-0.384l0,0c-0.224-0.341-0.231-0.782-0.008-1.123c0.453-0.692,1.422-1.765,3.199-2.082
					C224.97,101.137,225.404,102.545,225.404,102.545z"/>
				<path style="fill:#1E0A05;" d="M232.152,102.611c0,0-0.59,1.559,1.895,1.83c1.886,0.206,4.141,0.918,5.207,1.253
					c0.605,0.19,1.293,0.014,1.629-0.414l0,0c0.271-0.346,0.261-0.787-0.04-1.123c-0.612-0.681-2.96-2.335-5.253-2.61
					C232.646,101.193,232.152,102.611,232.152,102.611z"/>
			</g>
			<path style="fill:#1E0A05;" d="M230.276,89.495c0,0-2.261,12.233,27.269,10.59C257.545,100.085,259.268,82.989,230.276,89.495z"
				/>
			<polygon style="fill:#1E0A05;" points="248.382,97.583 250.04,115.384 263.992,103.532 			"/>
			<g>
				<path style="fill:#ECAC69;" d="M260.971,118.05c-1.16,3.379-4.84,5.177-8.219,4.017c-3.379-1.16-5.177-4.84-4.017-8.219
					s4.84-5.177,8.22-4.017C260.333,110.991,262.132,114.671,260.971,118.05z"/>
				
					<path style="fill:none;stroke:#1E0A05;stroke-width:0.6768;stroke-linecap:round;stroke-linejoin:round;stroke-miterlimit:10;" d="
					M257.838,114.167c0,0-4.327-1.62-5.383,3.186"/>
			</g>
		</g>
		<g>
			<g>
				<g>
					<polygon style="fill:#ECAC69;" points="239.845,384.727 242.786,431.95 229.752,428.77 224.524,383.625 					"/>
					<g>
						<rect x="202.981" y="445.367" style="fill:#FFFFFF;" width="42.398" height="5.315"/>
						<g>
							<path style="fill:#E16536;" d="M236.736,428.573c0,0,1.083-9.028-8.848-8.667c0,0-6.862-0.181-5.417,8.667
								c0,0-17.549,6.016-19.49,16.794h42.398l-1.57-16.702c-0.109-1.162-1.262-1.926-2.375-1.575L236.736,428.573z"/>
							
								<path style="fill:none;stroke:#000000;stroke-width:1.0744;stroke-linecap:round;stroke-linejoin:round;stroke-miterlimit:10;" d="
								M222.471,428.128c0,0,6.765-0.943,9.465,3.823"/>
							
								<path style="fill:none;stroke:#000000;stroke-width:1.0744;stroke-linecap:round;stroke-linejoin:round;stroke-miterlimit:10;" d="
								M218.209,430.356c0,0,6.765-1.388,9.466,3.377"/>
							
								<path style="fill:none;stroke:#000000;stroke-width:1.0744;stroke-linecap:round;stroke-linejoin:round;stroke-miterlimit:10;" d="
								M214.715,432.554c0,0,6.765-1.388,9.466,3.377"/>
						</g>
					</g>
				</g>
				<path style="fill:#393F6C;" d="M217.239,211.039c0,0-8.794,22.813-1.987,107.098c6.807,84.286,7.95,88.454,7.95,88.454
					l22.416-0.355l-3.403-195.197H217.239z"/>
				<polygon style="fill:#535B8C;" points="220.158,406.591 248.055,406.591 247.601,394.03 218.694,394.03 				"/>
			</g>
			<g>
				<g>
					<polygon style="fill:#ECAC69;" points="289.316,384.176 298.192,431.95 285.158,428.77 273.995,383.074 					"/>
					<g>
						<rect x="258.387" y="445.367" style="fill:#FFFFFF;" width="44.435" height="5.315"/>
						<g>
							<path style="fill:#E16536;" d="M292.142,428.573c0,0,1.083-9.028-8.848-8.667c0,0-6.862-0.181-5.417,8.667
								c0,0-17.549,6.016-19.49,16.794h44.436l-3.607-16.702c-0.109-1.162-1.262-1.926-2.375-1.575L292.142,428.573z"/>
							
								<path style="fill:none;stroke:#000000;stroke-width:1.0744;stroke-linecap:round;stroke-linejoin:round;stroke-miterlimit:10;" d="
								M277.877,428.128c0,0,6.765-0.943,9.466,3.823"/>
							
								<path style="fill:none;stroke:#000000;stroke-width:1.0744;stroke-linecap:round;stroke-linejoin:round;stroke-miterlimit:10;" d="
								M273.615,430.356c0,0,6.765-1.388,9.466,3.377"/>
							
								<path style="fill:none;stroke:#000000;stroke-width:1.0744;stroke-linecap:round;stroke-linejoin:round;stroke-miterlimit:10;" d="
								M270.121,432.554c0,0,6.765-1.388,9.466,3.377"/>
						</g>
					</g>
				</g>
				<g>
					<path style="fill:#393F6C;" d="M256.617,211.039c0,0,11.356,13.681,18.197,59.646s24.656,135.551,24.656,135.551l-25.766,0.355
						l-48.129-179.387l2.727-16.165H256.617z"/>
					
						<polyline style="fill:none;stroke:#1E0A05;stroke-width:0.6768;stroke-linecap:round;stroke-linejoin:round;stroke-miterlimit:10;" points="
						243.673,294.655 231.752,248.885 222.667,246.246 					"/>
					<polygon style="fill:#535B8C;" points="270.121,406.591 302.127,406.591 299.471,394.03 267.802,394.03 					"/>
				</g>
			</g>
		</g>
		<g>
			<g>
				<path style="fill:#E16536;" d="M223.353,148.764c0,0-11.345-1.408-15.315,9.708c-3.372,9.443-15.234,30.998-15.863,42.53
					c-0.043,0.781,0.143,1.622,0.494,2.445c1.393,3.265,5.032,4.964,8.503,4.219l4.342-0.932l19.381-36.473L223.353,148.764z"/>
				<g>
					<path style="fill:#E16536;" d="M252.13,146.37h18.66c2.063,0,1.819,1.689,1.76,3.75c-0.257,8.977-4.564,34.683-15.932,60.918
						h-39.378l-3.855-54.135c0.076-2.786,4.143-7.494,6.866-8.091l15.301-2.443H252.13z"/>
					
						<path style="fill:none;stroke:#1E0A05;stroke-width:0.6768;stroke-linecap:round;stroke-linejoin:round;stroke-miterlimit:10;" d="
						M214.627,187.167c0,0-7.733-16.023,3.592-27.357"/>
					<path style="fill:#ECAC69;" d="M256.591,146.37h-21.04l-4.393,0.701c0,0-4.72,8.177,7.678,8.177
						C251.235,155.248,256.304,147.667,256.591,146.37z"/>
				</g>
			</g>
			<g>
				<g>
					<path style="fill:#E16536;" d="M261.991,154.202c-1.08,9.183-5.931,29.709-10.409,41.896c-1.06,2.886-0.569,6.107,1.392,8.475
						l0,0c3.857,4.657,11.282,3.969,14.066-1.399c2.907-5.605,8.534-18.554,10.274-28.89c1.4-8.319,2.054-14.275,2.319-18.487
						c0.321-5.112-3.721-9.427-8.843-9.427l0,0C266.29,146.37,262.517,149.734,261.991,154.202z"/>
					<g>
						
							<line style="fill:none;stroke:#1E0A05;stroke-width:0.6768;stroke-linecap:round;stroke-linejoin:round;stroke-miterlimit:10;" x1="255.166" y1="184.322" x2="260.007" y2="160.424"/>
					</g>
				</g>
				<g>
					<path style="fill:#ECAC69;" d="M234.291,204.521c0,0-14.963,2.436-18.791-3.364l13.119-3.781l3.961-1.439L234.291,204.521z"/>
					<polygon style="fill:#E16536;" points="258.692,207.617 232.238,207.617 230.992,192.875 250.359,188.047 258.692,191.317 
											"/>
					
						<polyline style="fill:none;stroke:#1E0A05;stroke-width:0.6768;stroke-linecap:round;stroke-linejoin:round;stroke-miterlimit:10;" points="
						257.255,207.355 232.164,206.734 232.02,205.029 					"/>
					
						<line style="fill:none;stroke:#1E0A05;stroke-width:0.6768;stroke-linecap:round;stroke-linejoin:round;stroke-miterlimit:10;" x1="253.425" y1="190.692" x2="258.692" y2="191.317"/>
				</g>
			</g>
			<g>
				<path style="fill:#ECAC69;" d="M229.433,186.091l14.331-2.716c0,0,7.7-2.64,11.402,1.561l-1.741,5.756c0,0-4.056-1.093-6.236,0
					c-2.18,1.093-18.557,6.508-18.57,6.685C228.606,197.554,229.433,186.091,229.433,186.091z"/>
				<g>
					<polygon style="fill:#E16536;" points="205.514,206.734 231.635,200.483 232.729,185.207 203.499,189.126 					"/>
					
						<line style="fill:none;stroke:#1E0A05;stroke-width:0.6768;stroke-linecap:round;stroke-linejoin:round;stroke-miterlimit:10;" x1="232.729" y1="185.207" x2="203.499" y2="189.126"/>
				</g>
			</g>
		</g>
	</g>
	<g>
		<g>
			<g>
				<g>
					<g>
						<path style="fill:#AF5F5E;" d="M505.896,103.875c0,0,3.223-2.504,5.578,0.469c3.579,4.518-2.684,12.699-8.13,8.487
							L505.896,103.875z"/>
						
							<path style="fill:none;stroke:#000000;stroke-width:0.5243;stroke-linecap:round;stroke-linejoin:round;stroke-miterlimit:10;" d="
							M509.156,106.909c0,0-1.802-0.567-3.751,3.23"/>
					</g>
				</g>
				<path style="fill:none;stroke:#EAB62D;stroke-width:0.7291;stroke-linecap:round;stroke-miterlimit:10;" d="M499.978,119.544
					c0.673,1.898,2.375,3.35,4.51,3.602c2.996,0.353,5.71-1.789,6.063-4.784c0.353-2.995-1.789-5.71-4.784-6.063"/>
			</g>
			<g>
				<g>
					<g>
						<path style="fill:#AF5F5E;" d="M471.828,104.168c0,0-3.713-2.797-6.069,0.176c-3.579,4.518,2.684,12.699,8.13,8.487
							L471.828,104.168z"/>
						
							<path style="fill:none;stroke:#000000;stroke-width:0.5243;stroke-linecap:round;stroke-linejoin:round;stroke-miterlimit:10;" d="
							M468.077,106.909c0,0,1.802-0.567,3.751,3.23"/>
					</g>
				</g>
				<path style="fill:none;stroke:#EAB62D;stroke-width:0.7291;stroke-linecap:round;stroke-miterlimit:10;" d="M477.256,119.544
					c-0.673,1.898-2.375,3.35-4.51,3.602c-2.996,0.353-5.71-1.789-6.063-4.784s1.789-5.71,4.784-6.063"/>
			</g>
			<g>
				<defs>
					<path id="XMLID_42_" d="M507.404,89.368c0,16.861-4.371,29.146-18.846,29.146c-16.243,0-18.501-16.546-18.501-28.226
						c0-11.68,7.287-15.063,18.674-15.063C500.117,75.224,507.404,77.688,507.404,89.368z"/>
				</defs>
				<use xlink:href="#XMLID_42_"  style="overflow:visible;"/>
				<clipPath id="XMLID_00000122001531598087024190000003535732228068616336_">
					<use xlink:href="#XMLID_42_"  style="overflow:visible;"/>
				</clipPath>
				<path style="clip-path:url(#XMLID_00000122001531598087024190000003535732228068616336_);fill:#974644;" d="M461.909,89.571
					c19.801-5.807,19.876-5.544,26.006-5.544c6.13,0,6.189-0.236,26.747,5.087l-9.257,17.632l-31.954,3.052L461.909,89.571z"/>
			</g>
			<polygon style="fill:#AF5F5E;" points="483.408,122.104 482.019,143.401 495.781,143.401 493.77,121.873 			"/>
			<path d="M483.258,123.54c0.456,0.262,11.446,8.32,11.446,8.32l-0.933-9.988L483.258,123.54z"/>
			<path style="fill:#AF5F5E;" d="M471.304,93.83c0,0-2.174,31.041,16.713,31.041c20.426,0,18.284-31.041,18.284-31.041
				s-0.115-13.978-17.655-13.978C472.567,79.851,471.304,93.83,471.304,93.83z"/>
			<g>
				<path d="M482.52,104.7c0,0.823-0.667,1.491-1.491,1.491c-0.823,0-1.491-0.667-1.491-1.491c0-0.823,0.667-1.491,1.491-1.491
					C481.853,103.209,482.52,103.876,482.52,104.7z"/>
				<path d="M497.418,104.7c0,0.823-0.667,1.491-1.491,1.491c-0.823,0-1.491-0.667-1.491-1.491c0-0.823,0.667-1.491,1.491-1.491
					C496.75,103.209,497.418,103.876,497.418,104.7z"/>
				
					<polyline style="fill:none;stroke:#000000;stroke-width:0.5243;stroke-linecap:round;stroke-linejoin:round;stroke-miterlimit:10;" points="
					487.033,108.445 487.033,110.863 488.797,110.895 				"/>
				<path d="M491.869,96.793c0,0-0.463,1.695,2.172,1.732c2.001,0.028,4.439,0.548,5.592,0.794c0.655,0.139,1.359-0.115,1.668-0.598
					l0,0c0.25-0.39,0.196-0.852-0.155-1.175c-0.711-0.654-3.342-2.154-5.776-2.214C492.246,95.255,491.869,96.793,491.869,96.793z"
					/>
				<path d="M483.822,96.834c0,0,0.463,1.695-2.172,1.732c-2.001,0.028-4.439,0.548-5.592,0.794
					c-0.654,0.139-1.359-0.114-1.668-0.598l0,0c-0.25-0.391-0.196-0.852,0.155-1.175c0.711-0.654,3.342-2.154,5.776-2.214
					C483.446,95.296,483.822,96.834,483.822,96.834z"/>
				<g>
					<path style="fill:#E89591;" d="M484.24,114.088c0,0,0.197,2.655,3.736,2.655c3.538,0,3.736-2.655,3.736-2.655H484.24z"/>
					<path style="fill:#E89591;" d="M491.711,114.088c0,0-3.407-1.888-7.471,0C484.24,114.088,488.335,115.839,491.711,114.088z"/>
					
						<path style="fill:none;stroke:#000000;stroke-width:0.5243;stroke-linecap:round;stroke-linejoin:round;stroke-miterlimit:10;" d="
						M483.381,113.766c0,0,4.127,2.391,9.068,0"/>
				</g>
			</g>
			<path d="M473.353,86.286c0,0,13.68-4.456,30.806,0.152c0,0-0.1-9.218-15.43-9.218C473.4,77.221,473.353,86.286,473.353,86.286z"
				/>
		</g>
		<g>
			<g>
				<g>
					<path style="fill:#AF5F5E;" d="M490.739,290.862l2.375,56.67l2.248,90.212l11.259,0.42l3.4-73.934
						c0,0,0.484-11.467,1.026-27.793c0,0,3.227-33.961,2.61-51.936L490.739,290.862z"/>
					<polygon style="fill:#FFFFFF;" points="494.819,415.935 495.362,437.744 506.622,438.165 507.933,415.935 					"/>
				</g>
				<g>
					<g>
						<g>
							<g>
								<defs>
									<path id="XMLID_47_" d="M495.049,433.207c0,0,8.292,5.102,12.337-2.302l29.652,15.738l-46.183-0.283L495.049,433.207z"/>
								</defs>
								<use xlink:href="#XMLID_47_"  style="overflow:visible;fill:#101010;"/>
								<clipPath id="XMLID_00000176003415514133167730000007314571192558302135_">
									<use xlink:href="#XMLID_47_"  style="overflow:visible;"/>
								</clipPath>
								<path style="clip-path:url(#XMLID_00000176003415514133167730000007314571192558302135_);fill:#FFFFFF;" d="
									M531.755,437.264c0,0-11.4,1.705-10.523,15.882l19.731-5.408L531.755,437.264z"/>
							</g>
							
								<rect x="511.913" y="425.429" transform="matrix(0.0061 -1 1 0.0061 62.2753 959.7)" style="fill:#FFFFFF;" width="4.038" height="46.184"/>
							<path style="fill:#FFFFFF;" d="M510.899,438.605c0.123-0.05,0.235-0.132,0.32-0.244c1.795-2.352,3.597-3.513,3.615-3.524
								c0.355-0.226,0.451-0.684,0.214-1.022c-0.237-0.339-0.723-0.422-1.072-0.205c-0.083,0.052-2.04,1.304-4.011,3.885
								c-0.251,0.33-0.174,0.791,0.172,1.03C510.366,438.683,510.656,438.704,510.899,438.605z"/>
							<path style="fill:#FFFFFF;" d="M514.673,440.493c0.123-0.05,0.235-0.132,0.32-0.244c1.794-2.352,3.597-3.513,3.615-3.524
								c0.355-0.226,0.451-0.684,0.214-1.022c-0.236-0.338-0.725-0.426-1.072-0.205c-0.083,0.052-2.04,1.304-4.011,3.885
								c-0.251,0.33-0.174,0.791,0.172,1.03C514.139,440.571,514.43,440.592,514.673,440.493z"/>
							<path style="fill:#FFFFFF;" d="M518.446,442.38c0.124-0.05,0.235-0.133,0.32-0.244c1.795-2.351,3.597-3.512,3.615-3.523
								c0.355-0.226,0.451-0.684,0.214-1.022c-0.236-0.338-0.724-0.426-1.072-0.205c-0.083,0.052-2.04,1.304-4.012,3.884
								c-0.252,0.329-0.174,0.791,0.172,1.03C517.913,442.458,518.203,442.48,518.446,442.38z"/>
						</g>
					</g>
				</g>
			</g>
			<g>
				<g>
					<path style="fill:#AF5F5E;" d="M487.559,290.862l-2.375,56.67l-2.248,90.212l-11.26,0.42l-3.399-73.934
						c0,0-0.484-11.467-1.026-27.793c0,0-3.227-33.961-2.611-51.936L487.559,290.862z"/>
					<polygon style="fill:#FFFFFF;" points="483.48,415.935 482.936,437.744 471.677,438.165 470.366,415.935 					"/>
				</g>
				<g>
					<g>
						<g>
							<g>
								<defs>
									<path id="XMLID_43_" d="M483.249,433.207c0,0-8.292,5.102-12.337-2.302l-29.652,15.738l46.183-0.283L483.249,433.207z"/>
								</defs>
								<use xlink:href="#XMLID_43_"  style="overflow:visible;fill:#101010;"/>
								<clipPath id="XMLID_00000030478923033930965760000001715623025635024294_">
									<use xlink:href="#XMLID_43_"  style="overflow:visible;"/>
								</clipPath>
								<path style="clip-path:url(#XMLID_00000030478923033930965760000001715623025635024294_);fill:#FFFFFF;" d="
									M446.543,437.264c0,0,11.4,1.705,10.523,15.882l-19.731-5.408L446.543,437.264z"/>
							</g>
							
								<rect x="441.275" y="446.502" transform="matrix(1 -0.0061 0.0061 1 -2.7349 2.8489)" style="fill:#FFFFFF;" width="46.184" height="4.038"/>
							<path style="fill:#FFFFFF;" d="M467.399,438.605c-0.124-0.05-0.235-0.132-0.32-0.244c-1.794-2.352-3.597-3.513-3.615-3.524
								c-0.355-0.226-0.451-0.684-0.214-1.022c0.237-0.339,0.723-0.422,1.072-0.205c0.083,0.052,2.04,1.304,4.011,3.885
								c0.251,0.33,0.174,0.791-0.172,1.03C467.933,438.683,467.642,438.704,467.399,438.605z"/>
							<path style="fill:#FFFFFF;" d="M463.626,440.493c-0.123-0.05-0.235-0.132-0.32-0.244c-1.794-2.352-3.597-3.513-3.615-3.524
								c-0.355-0.226-0.451-0.684-0.214-1.022c0.236-0.338,0.725-0.426,1.072-0.205c0.083,0.052,2.04,1.304,4.011,3.885
								c0.251,0.33,0.174,0.791-0.172,1.03C464.159,440.571,463.868,440.592,463.626,440.493z"/>
							<path style="fill:#FFFFFF;" d="M459.852,442.38c-0.123-0.05-0.235-0.133-0.32-0.244c-1.795-2.351-3.597-3.512-3.615-3.523
								c-0.355-0.226-0.451-0.684-0.214-1.022c0.236-0.338,0.724-0.426,1.072-0.205c0.083,0.052,2.04,1.304,4.012,3.884
								c0.252,0.329,0.174,0.791-0.172,1.03C460.386,442.458,460.095,442.48,459.852,442.38z"/>
						</g>
					</g>
				</g>
			</g>
			<path d="M490.613,302.75c20.001-0.597,31.671-4.013,31.671-4.013s-1.002-41.382-2.999-63.66
				c-1.51-16.845-13.177-33.049-13.177-33.049h-15.495h-1.996h-15.495c0,0-12.16,16.167-13.177,33.049
				c-1.342,22.278-2.999,63.66-2.999,63.66s11.67,3.416,31.67,4.013H490.613z"/>
		</g>
		<g>
			<g>
				<g>
					<g>
						<path style="fill:#AF5F5E;" d="M520.128,211.63l6.339,45.583l6.397,0.141c0,0,0.008-27.91-0.987-46.646
							c-0.158-2.972-3.776-5.656-6.726-5.259l0,0C522.387,205.822,519.759,208.866,520.128,211.63z"/>
					</g>
					<path style="fill:#AF5F5E;" d="M527.423,254.305c0,0-3.504,4.685-2.027,11.09l-1.885,6.014
						c-0.293,0.934,0.096,1.962,0.912,2.411l0,0c0.883,0.486,1.958,0.128,2.429-0.809l1.685-3.352l0.053,1.334
						c0.085,2.118-0.494,4.201-1.641,5.911l-3.266,4.866c-0.372,0.554-0.434,1.285-0.162,1.907l0,0
						c0.525,1.203,2.001,1.463,2.84,0.5l5.033-5.782c1.95-2.241,2.908-5.289,2.627-8.365l-1.509-16.528L527.423,254.305z"/>
				</g>
				<g>
					<polygon style="fill:#AF5F5E;" points="531.877,210.709 529.047,171.939 515.579,175.249 520.223,212.174 					"/>
					<g>
						<path style="fill:#E39A00;" d="M514.61,170.194l-4.762-26.562c0,0,18.513,2.644,21.512,22.551l0.517,6.375l-19.901,7.989
							L514.61,170.194z"/>
					</g>
				</g>
			</g>
			<g>
				<g>
					<polygon style="fill:#AF5F5E;" points="433.998,194.175 452.85,161.554 463.52,170.415 444.889,201.603 					"/>
					<g>
						<path style="fill:#E39A00;" d="M477.256,170.933l-5.306-27.025c0,0-10.828-1.512-23.191,19.511l-3.559,6.146l23.609,13.389
							L477.256,170.933z"/>
					</g>
				</g>
				<g>
					<g>
						<g>
							<path style="fill:#AF5F5E;" d="M442.437,192.253l20.892,17.127l-4.394,6.812c0,0-7.942-3.775-23.41-14.394
								c-2.454-1.685-2.857-6.171-0.98-8.481l0,0C436.303,191.152,440.271,190.497,442.437,192.253z"/>
						</g>
					</g>
					<path style="fill:#AF5F5E;" d="M480.014,205.36l-10.856-0.375c-1.055-0.036-2.077,0.395-2.825,1.192l-4.404,4.695l-3.552,0.276
						c0,0-5.186-0.832-2.234,2.775c2.952,3.607,8.216,4.055,8.216,4.055l1.839-3.501h9.779c0.514,0,0.955-0.492,1.048-1.171
						c0.12-0.878-0.383-1.688-1.048-1.688h2.942c0.508,0,0.956-0.358,1.102-0.879l1.057-3.797
						C481.294,206.168,480.767,205.386,480.014,205.36z"/>
				</g>
			</g>
			<g>
				<g>
					<path style="fill:#E39A00;" d="M489.333,139.837l-19.981,4.478c-6.051,1.331-11.185,7.375-9.727,13.397l13.541,44.315h32.941
						l13.072-45.606c1.303-6.134-4.792-12.122-10.972-13.189L489.333,139.837z"/>
				</g>
				<path style="fill:#AF5F5E;" d="M473.713,143.274l15.619-3.436l14.188,2.447c0,0-2.814,5.694-14.654,5.694
					C477.026,147.978,473.713,143.274,473.713,143.274z"/>
				
					<line style="fill:none;stroke:#1E0A05;stroke-width:0.6866;stroke-linecap:round;stroke-linejoin:round;stroke-miterlimit:10;" x1="511.976" y1="180.546" x2="515.8" y2="162.905"/>
				
					<line style="fill:none;stroke:#1E0A05;stroke-width:0.6866;stroke-linecap:round;stroke-linejoin:round;stroke-miterlimit:10;" x1="466.539" y1="180.546" x2="462.735" y2="162.905"/>
			</g>
		</g>
	</g>
	<g>
		<g>
			<g>
				<g>
					<polygon style="fill:#101010;" points="612.964,428.554 595.387,428.554 566.318,444.104 616.3,443.508 					"/>
					<g>
						<path style="fill:#FFFFFF;" d="M604.042,447.095c1.65,0,2.986,1.38,3.02,3.094l9.413-0.103l-0.174-6.578l-49.982,0.596
							l0.174,6.578l34.524-0.419v-0.01C601.016,448.509,602.37,447.095,604.042,447.095z"/>
					</g>
					
						<line style="fill:none;stroke:#FFFFFF;stroke-width:1.1061;stroke-linecap:round;stroke-linejoin:round;stroke-miterlimit:10;" x1="583.238" y1="434.281" x2="588.997" y2="435.855"/>
					
						<line style="fill:none;stroke:#FFFFFF;stroke-width:1.1061;stroke-linecap:round;stroke-linejoin:round;stroke-miterlimit:10;" x1="588.867" y1="431.392" x2="594.626" y2="432.966"/>
				</g>
				<polygon style="fill:#ECAC69;" points="594.064,403.772 611.98,403.772 612.964,428.554 595.048,428.554 				"/>
			</g>
			<g>
				<g>
					<polygon style="fill:#101010;" points="668.639,428.554 651.062,428.554 621.993,444.104 671.975,443.508 					"/>
					<g>
						<path style="fill:#FFFFFF;" d="M659.716,447.095c1.65,0,2.986,1.38,3.02,3.094l9.413-0.103l-0.174-6.578l-49.982,0.596
							l0.174,6.578l34.524-0.419v-0.01C656.691,448.509,658.045,447.095,659.716,447.095z"/>
					</g>
					
						<line style="fill:none;stroke:#FFFFFF;stroke-width:1.1061;stroke-linecap:round;stroke-linejoin:round;stroke-miterlimit:10;" x1="638.913" y1="434.281" x2="644.672" y2="435.855"/>
					
						<line style="fill:none;stroke:#FFFFFF;stroke-width:1.1061;stroke-linecap:round;stroke-linejoin:round;stroke-miterlimit:10;" x1="644.542" y1="431.392" x2="650.301" y2="432.966"/>
				</g>
				<polygon style="fill:#ECAC69;" points="646.641,403.772 664.557,403.772 668.639,428.554 650.723,428.554 				"/>
			</g>
			<g>
				<path style="fill:#3C2D52;" d="M588.99,210.816c0,0-5.804,3.751-6.857,35.091c-0.216,6.441-0.089,15.39,0.313,21.822
					l9.626,152.133h25.589l-5.171-163.498l32.706,163.498l24.909-0.704l-28.039-208.341l-25.177-3.072L588.99,210.816z"/>
				
					<line style="fill:none;stroke:#171717;stroke-width:0.7359;stroke-linecap:round;stroke-linejoin:round;stroke-miterlimit:10;" x1="613.475" y1="256.364" x2="598.819" y2="253.934"/>
			</g>
		</g>
		<g>
			<path style="fill:#DE924B;" d="M592.05,99.818c-0.714,3.163-3.857,5.147-7.02,4.433c-3.163-0.714-5.147-3.857-4.433-7.02
				c0.714-3.163,3.857-5.147,7.02-4.433C590.779,93.513,592.764,96.656,592.05,99.818z"/>
			<polygon style="fill:#ECAC69;" points="601.73,112.736 602.258,135.819 619.602,134.314 615.332,96.799 			"/>
			<polygon style="fill:#1E0A05;" points="602.039,126.253 614.41,109.788 601.813,113.982 			"/>
			<path style="fill:#ECAC69;" d="M593.598,73.304c-5.931,0.794-8.82,7.077-9.408,12.715c-0.676,6.493-1.278,16.557,0.741,21.487
				c3.12,7.621,9.746,12.089,19.766,9.372c0,0,11.731-1.43,13.428-19.118C620.132,76.831,606.218,71.615,593.598,73.304z"/>
			<g>
				<path style="fill:#1E0A05;" d="M587.644,94.357c-0.136,0.729-0.838,1.21-1.567,1.073s-1.21-0.838-1.073-1.567
					c0.136-0.729,0.838-1.21,1.567-1.073C587.3,92.926,587.78,93.628,587.644,94.357z"/>
				<path style="fill:#1E0A05;" d="M598.983,94.357c-0.136,0.729-0.838,1.21-1.567,1.073s-1.21-0.838-1.073-1.567
					s0.838-1.21,1.567-1.073C598.639,92.926,599.12,93.628,598.983,94.357z"/>
				
					<path style="fill:none;stroke:#1E0A05;stroke-width:0.6972;stroke-linecap:round;stroke-linejoin:round;stroke-miterlimit:10;" d="
					M590.134,95.847l-0.952,3.87c-0.102,0.414,0.164,0.828,0.582,0.909l1.419,0.274"/>
				<g>
					<defs>
						<path id="XMLID_40_" d="M588.522,103.331l10.485,0.503c0,0-0.383,4.524-5.238,4.347
							C588.94,108.005,588.522,103.331,588.522,103.331z"/>
					</defs>
					<use xlink:href="#XMLID_40_"  style="overflow:visible;fill:#1E0A05;"/>
					<clipPath id="XMLID_00000088834201841824123840000000493763814836773272_">
						<use xlink:href="#XMLID_40_"  style="overflow:visible;"/>
					</clipPath>
					<path style="clip-path:url(#XMLID_00000088834201841824123840000000493763814836773272_);fill:#E17AC4;" d="M599.118,111.293
						c-0.919,1.824-3.143,2.557-4.967,1.637c-1.824-0.919-2.557-3.143-1.637-4.967c0.919-1.824,3.143-2.557,4.967-1.637
						C599.305,107.246,600.038,109.469,599.118,111.293z"/>
					<polygon style="clip-path:url(#XMLID_00000088834201841824123840000000493763814836773272_);fill:#FFFFFF;" points="
						587.762,104.718 599.668,105.135 599.741,103.122 587.852,102.251 					"/>
				</g>
				<path style="fill:#1E0A05;" d="M588.822,84.658c0,0,0.529,1.593-1.455,1.92c-1.507,0.248-2.464,0.381-3.307,0.746
					c-0.479,0.207-1.037,0.039-1.322-0.396l0,0c-0.23-0.351-0.238-0.805-0.008-1.157c0.467-0.712,1.465-1.818,3.295-2.144
					C588.375,83.207,588.822,84.658,588.822,84.658z"/>
				<path style="fill:#1E0A05;" d="M595.773,84.726c0,0-0.607,1.605,1.952,1.886c1.943,0.213,4.266,0.945,5.364,1.291
					c0.623,0.196,1.332,0.015,1.678-0.427l0,0c0.28-0.356,0.269-0.811-0.042-1.157c-0.63-0.701-3.05-2.405-5.411-2.689
					C596.281,83.266,595.773,84.726,595.773,84.726z"/>
			</g>
			<path style="fill:#1E0A05;" d="M613.255,100.901l-2.589-12.919c-0.582-2.996,0.377-5.469,1.022-9.116
				c-11.35,0.03-24.696-0.143-24.696-1.176c0,0,4.713-10.809,24.21-9.263c26.7,2.117,17.101,34.905,5.608,41.362L613.255,100.901z"
				/>
			<g>
				<path style="fill:#ECAC69;" d="M625.763,100.653c-0.867,3.838-4.68,6.246-8.518,5.38s-6.246-4.681-5.38-8.518
					c0.867-3.838,4.68-6.246,8.518-5.38C624.221,93.001,626.629,96.815,625.763,100.653z"/>
				
					<path style="fill:none;stroke:#1E0A05;stroke-width:0.6972;stroke-linecap:round;stroke-linejoin:round;stroke-miterlimit:10;" d="
					M621.869,96.776c0,0-5.317-1.12-6.289,4.713"/>
			</g>
			<path style="fill:#1E0A05;" d="M642.703,71.545c1.166,4.381-2.18,9.074-7.474,10.484c-5.294,1.41-10.532-0.999-11.698-5.379
				c-1.166-4.381,2.18-9.074,7.474-10.484C636.299,64.756,641.537,67.164,642.703,71.545z"/>
		</g>
		<g>
			<g>
				<g>
					<g>
						<path style="fill:#ECAC69;" d="M585.925,214.618l-24.001,53.316l-7.942-1.819c0,0,8.661-34.793,15.729-57.614
							c1.121-3.62,8.42-4.487,11.939-3.078l0,0C584.946,206.743,587.242,211.32,585.925,214.618z"/>
					</g>
					<path style="fill:#ECAC69;" d="M561.652,264.04c0,0,3.061,6.406-0.446,13.104l0.723,7.364c0.112,1.143-0.637,2.169-1.757,2.405
						l0,0c-1.213,0.255-2.438-0.5-2.768-1.705l-1.182-4.313l-0.418,1.479c-0.664,2.348-0.506,4.874,0.451,7.168l2.722,6.53
						c0.31,0.743,0.193,1.583-0.305,2.192l0,0c-0.963,1.177-2.844,0.984-3.618-0.372l-4.648-8.138
						c-1.801-3.154-2.17-6.888-1.012-10.245l6.225-18.042L561.652,264.04z"/>
				</g>
				<g>
					<path style="fill:#ECAC69;" d="M596.895,158.309c0,0-3.534,30.993-10.817,54.617c-0.877,2.844-6.324,6.686-9.293,6.883l0,0
						c-4.479,0.296-8.13-3.543-7.608-8.002l8.882-55.321L596.895,158.309z"/>
					<g>
						<g>
							<path style="fill:#E16536;" d="M588.432,139.038c0,0-15.064,8.976-17.99,33.29l21.506,11.816L588.432,139.038z"/>
							<polygon style="fill:#E47E5E;" points="591.948,184.143 567.538,176.843 569.62,170.007 591.396,175.864 							"/>
						</g>
					</g>
				</g>
			</g>
			<g>
				<path style="fill:#E16536;" d="M617.202,131.444c7.415,0.632,14.727,2.26,21.637,5.024c1.692,0.677,3.36,1.419,4.886,2.217
					c4.802,2.513,3.366,7.941,2.762,13.485l-2.822,74.949l-60.47-1.538l-2.399-70.941c-0.53-7.725,4.041-14.828,11.11-17.32
					c7.919-2.792,17.585-5.92,21.799-6.174L617.202,131.444z"/>
				
					<line style="fill:none;stroke:#171717;stroke-width:0.7359;stroke-linecap:round;stroke-linejoin:round;stroke-miterlimit:10;" x1="582.561" y1="180.374" x2="581.055" y2="158.426"/>
				<path style="fill:#ECAC69;" d="M595.47,136.084c0,0,11.13-4.358,18.235-4.938c0,0,9.707,0.412,16.381,2.469
					c0,0-3.702,7.898-20.742,9.193C592.304,144.103,595.47,136.084,595.47,136.084z"/>
			</g>
			<g>
				<g>
					<polygon style="fill:#ECAC69;" points="677.441,173.951 649.003,217.38 656.662,226.069 688.053,194.165 					"/>
					<path style="fill:#ECAC69;" d="M622.874,219.357l12.164-6.416l-1.194-2.77c-0.435-1.008-0.166-2.193,0.657-2.894
						c0.849-0.724,2.068-0.744,2.939-0.049l11.98,9.758l7.242,9.083c-6.571,5.837-10.865,5.764-13.34,4.634
						c-0.289,0.1-0.574,0.209-0.867,0.297l-10.109,3.007c-0.935,0.419-2.022,0.01-2.482-0.933c-0.333-0.684-0.45-1.781,1.496-2.806
						l-1.946,1.025c-0.989,0.443-2.138-0.006-2.6-1.015c-0.435-0.892,0.099-2.071,1.241-2.843l-1.49,0.607
						c-1.079,0.483-2.348-0.067-2.753-1.254c-0.349-1.026,0.174-2.16,1.111-2.651l2.15-1.128l-2.553,0.641
						c-1.175,0.431-2.486-0.221-2.871-1.498C621.319,221.055,621.888,219.877,622.874,219.357z"/>
					
						<line style="fill:none;stroke:#171717;stroke-width:0.4779;stroke-linecap:round;stroke-linejoin:round;stroke-miterlimit:10;" x1="626.427" y1="223.325" x2="633.619" y2="219.804"/>
					
						<line style="fill:none;stroke:#171717;stroke-width:0.4779;stroke-linecap:round;stroke-linejoin:round;stroke-miterlimit:10;" x1="628.362" y1="227.304" x2="635.295" y2="224.309"/>
					
						<line style="fill:none;stroke:#171717;stroke-width:0.4779;stroke-linecap:round;stroke-linejoin:round;stroke-miterlimit:10;" x1="630.716" y1="230.532" x2="636.591" y2="228.128"/>
				</g>
				<g>
					<path style="fill:#ECAC69;" d="M637.555,161.98l36.162,32.353c3.375,3.539,8.701,4.082,12.676,1.292l0,0
						c5.01-3.517,5.871-10.815,1.826-15.481l-34.005-34.464c-4.064-4.688-10.95-5.266-15.688-1.319l0,0
						C633.23,148.774,632.779,156.97,637.555,161.98z"/>
					<g>
						<path style="fill:#E16536;" d="M636.761,135.672c0,0,14.523,2.936,32.551,25.31l-15.439,20.721l-23.526-17.476
							L636.761,135.672z"/>
						<polygon style="fill:#E47E5E;" points="654.329,182.019 648.055,177.358 664.969,153.949 671.376,158.687 						"/>
						
							<line style="fill:none;stroke:#171717;stroke-width:0.7359;stroke-linecap:round;stroke-linejoin:round;stroke-miterlimit:10;" x1="645.885" y1="175.769" x2="632.239" y2="165.632"/>
					</g>
				</g>
			</g>
		</g>
	</g>
	<g>
		<g>
			<g>
				<g>
					<polygon style="fill:#ECAC69;" points="133.648,439.79 132.246,400.018 145.922,401.889 145.021,437.186 					"/>
					<g>
						<g>
							<g>
								<g>
									<defs>
										<path id="XMLID_57_" d="M132.338,433.106c0,0,9.454,5.132,13.522-2.315l26.482,15.829l-44.223-0.284L132.338,433.106z"/>
									</defs>
									<use xlink:href="#XMLID_57_"  style="overflow:visible;fill:#101010;"/>
									<clipPath id="XMLID_00000073710149079797299880000004354781785283115397_">
										<use xlink:href="#XMLID_57_"  style="overflow:visible;"/>
									</clipPath>
								</g>
								
									<rect x="148.185" y="426.397" transform="matrix(0.0064 -1 1 0.0064 -299.2484 595.8406)" style="fill:#FFFFFF;" width="4.062" height="44.224"/>
								<path style="fill:#FFFFFF;" d="M148.28,438.535c0.124-0.051,0.236-0.133,0.322-0.245c1.805-2.366,3.618-3.533,3.636-3.545
									c0.357-0.227,0.454-0.687,0.215-1.028c-0.238-0.341-0.727-0.424-1.078-0.207c-0.084,0.052-2.052,1.312-4.034,3.908
									c-0.253,0.332-0.175,0.796,0.173,1.036C147.743,438.613,148.035,438.635,148.28,438.535z"/>
								<path style="fill:#FFFFFF;" d="M152.075,440.434c0.124-0.051,0.236-0.133,0.322-0.245c1.805-2.366,3.618-3.533,3.636-3.545
									c0.357-0.227,0.454-0.688,0.215-1.028c-0.238-0.34-0.729-0.428-1.078-0.206c-0.084,0.052-2.052,1.312-4.034,3.908
									c-0.253,0.332-0.175,0.796,0.173,1.036C151.539,440.512,151.831,440.534,152.075,440.434z"/>
								<path style="fill:#FFFFFF;" d="M155.871,442.332c0.124-0.051,0.236-0.133,0.322-0.245c1.805-2.365,3.618-3.532,3.636-3.544
									c0.357-0.227,0.454-0.687,0.215-1.028c-0.238-0.34-0.728-0.428-1.078-0.206c-0.084,0.052-2.052,1.312-4.035,3.907
									c-0.253,0.331-0.175,0.796,0.173,1.036C155.334,442.41,155.626,442.432,155.871,442.332z"/>
							</g>
						</g>
					</g>
				</g>
				<path style="fill:#3C2D52;" d="M141.898,204.786l8.271,18.493c2.536,5.67,3.76,11.84,3.581,18.049l-4.957,177.241h-18.407
					l-7.545-213.783H141.898z"/>
			</g>
			<g>
				<g>
					<polygon style="fill:#ECAC69;" points="115.159,439.79 116.561,400.018 102.885,401.889 103.786,437.186 					"/>
					<g>
						<g>
							<g>
								<g>
									<defs>
										<path id="XMLID_56_" d="M116.469,433.106c0,0-9.454,5.132-13.522-2.315L76.465,446.62l44.223-0.284L116.469,433.106z"/>
									</defs>
									<use xlink:href="#XMLID_56_"  style="overflow:visible;fill:#101010;"/>
									<clipPath id="XMLID_00000087402020376148116770000012415166103302099130_">
										<use xlink:href="#XMLID_56_"  style="overflow:visible;"/>
									</clipPath>
								</g>
								
									<rect x="76.479" y="446.478" transform="matrix(1 -0.0064 0.0064 1 -2.8792 0.6426)" style="fill:#FFFFFF;" width="44.224" height="4.062"/>
								<path style="fill:#FFFFFF;" d="M100.527,438.535c-0.124-0.051-0.236-0.133-0.322-0.245
									c-1.805-2.366-3.618-3.533-3.636-3.545c-0.357-0.227-0.454-0.687-0.215-1.028c0.238-0.341,0.727-0.424,1.078-0.207
									c0.084,0.052,2.052,1.312,4.034,3.908c0.253,0.332,0.175,0.796-0.173,1.036
									C101.064,438.613,100.772,438.635,100.527,438.535z"/>
								<path style="fill:#FFFFFF;" d="M96.732,440.434c-0.124-0.051-0.236-0.133-0.322-0.245c-1.805-2.366-3.618-3.533-3.636-3.545
									c-0.357-0.227-0.454-0.688-0.215-1.028c0.238-0.34,0.729-0.428,1.078-0.206c0.084,0.052,2.052,1.312,4.034,3.908
									c0.253,0.332,0.175,0.796-0.173,1.036C97.268,440.512,96.976,440.534,96.732,440.434z"/>
								<path style="fill:#FFFFFF;" d="M92.936,442.332c-0.124-0.051-0.236-0.133-0.322-0.245c-1.805-2.365-3.618-3.532-3.636-3.544
									c-0.357-0.227-0.454-0.687-0.215-1.028c0.238-0.34,0.728-0.428,1.078-0.206c0.084,0.052,2.052,1.312,4.035,3.907
									c0.253,0.331,0.175,0.796-0.173,1.036C93.473,442.41,93.181,442.432,92.936,442.332z"/>
							</g>
						</g>
					</g>
				</g>
				<g>
					<path style="fill:#3C2D52;" d="M107.048,204.786l-8.271,18.493c-2.536,5.67-3.76,11.84-3.581,18.049l4.957,177.241h18.415
						l7.537-213.783H107.048z"/>
					
						<line style="fill:none;stroke:#1E0A05;stroke-width:0.6808;stroke-linecap:round;stroke-linejoin:round;stroke-miterlimit:10;" x1="115.614" y1="251.378" x2="132.492" y2="249.834"/>
				</g>
			</g>
		</g>
		<g>
			<g>
				<path style="fill:#3E3EAB;" d="M150.296,145.803c0,0,9.708,0.111,11.186,14.684c1.477,14.572,2.552,35.942,2.552,35.942
					l-12.756,1.09l-5.747-37.058L150.296,145.803z"/>
				<g>
					<g>
						<polygon style="fill:#ECAC69;" points="164.034,196.429 167.89,266.202 162.121,266.88 151.277,197.518 						"/>
					</g>
					<g>
						<path style="fill:#ECAC69;" d="M162.466,262.581c0,0-3.296,4.875-1.507,11.239l-1.607,6.132
							c-0.249,0.952,0.191,1.967,1.031,2.379l0,0c0.91,0.446,1.974,0.035,2.402-0.929l1.533-3.448l0.117,1.338
							c0.186,2.124-0.295,4.244-1.367,6.017l-3.049,5.045c-0.347,0.574-0.375,1.311-0.072,1.923l0,0
							c0.585,1.184,2.081,1.375,2.877,0.367l4.78-6.05c1.852-2.344,2.669-5.453,2.24-8.529l-2.305-16.533L162.466,262.581z"/>
					</g>
				</g>
			</g>
			<g>
				<g>
					<g>
						<path style="fill:#ECAC69;" d="M76.762,200.189c-3.075-1.507-4.47-5.127-3.204-8.308l10.837-27.218
							c1.67-4.325,4.189-6.24,7.905-5.486l0,0c3.549,0.721,6.339,4.199,5.698,7.763L85.706,196.8
							C84.264,200.302,80.162,201.856,76.762,200.189L76.762,200.189z"/>
					</g>
					<path style="fill:#3E3EAB;" d="M101.135,144.527c0,0-8.291-0.64-14.297,12.551c-6.069,13.33-8.809,22.155-8.809,22.155
						l8.736,14.997l17.579-32.564L101.135,144.527z"/>
				</g>
				<g>
					<path style="fill:#ECAC69;" d="M59.207,148.264l-6.4,2.396l18.88,42.752c1.378,4.706,4.738,8.997,9.014,6.596h0
						c3.555-1.996,4.911-6.435,3.079-10.077L59.207,148.264z"/>
					<g>
						<path style="fill:#ECAC69;" d="M59.009,146.869l-0.431-1.665c-0.579-2.237-1.675-4.307-3.2-6.042l-2.686-3.056
							c-0.638-0.726-1.776-0.704-2.386,0.046l0,0c-0.515,0.633-0.593,1.516-0.198,2.23l2.09,3.778l-12.733-7.704
							c-0.614-0.393-1.434-0.158-1.746,0.501l-0.209,0.442c-0.247,0.521-0.092,1.143,0.369,1.487l8.379,5.489l-10.497-4.974
							c-0.636-0.351-1.436-0.066-1.707,0.608l-0.134,0.334c-0.228,0.567,0.003,1.215,0.537,1.511l9.032,4.919l-7.676-2.228
							c-0.735-0.238-1.503,0.265-1.577,1.034l-0.015,0.155c-0.051,0.527,0.247,1.027,0.735,1.232l7.809,2.883l-4.357-0.557
							c-0.86-0.237-1.672,0.506-1.513,1.383l0,0c0.076,0.417,0.365,0.765,0.762,0.915l19.776,7.014l1.437-4.534
							C59.404,150.385,59.452,148.582,59.009,146.869z"/>
						
							<path style="fill:none;stroke:#000000;stroke-width:0.4485;stroke-linecap:round;stroke-linejoin:round;stroke-miterlimit:10;" d="
							M52.199,142.16c0,0-1.162,3.142,1.101,6.671"/>
					</g>
				</g>
			</g>
			<g>
				<path style="fill:#3E3EAB;" d="M151.93,146.022l-27.584-9.967l-27.594,10.072c-1.414,0.516-2.164,2.049-1.682,3.475
					c3.072,9.092,13.156,40.208,12.329,54.475h17.085h17.085c-0.827-14.273,9.055-45.492,12.059-54.596
					C154.098,148.056,153.342,146.532,151.93,146.022z"/>
				<rect x="107.048" y="196.755" style="fill:#1E0A05;" width="34.799" height="8.032"/>
				<g>
					<path style="fill:#ECAC69;" d="M101.135,144.527c0,0,4.752,7.883,22.716,7.883s23.463-8.057,23.463-8.057l-22.967-8.299
						L101.135,144.527z"/>
					
						<line style="fill:none;stroke:#1E0A05;stroke-width:0.6808;stroke-linecap:round;stroke-linejoin:round;stroke-miterlimit:10;" x1="147.016" y1="171.661" x2="150.071" y2="160.55"/>
					
						<line style="fill:none;stroke:#1E0A05;stroke-width:0.6808;stroke-linecap:round;stroke-linejoin:round;stroke-miterlimit:10;" x1="100.865" y1="168.107" x2="98.776" y2="161.189"/>
				</g>
			</g>
		</g>
		<g>
			<g>
				<path style="fill:#733D3C;" d="M134.899,73.846c-1.224,6.09-7.153,10.035-13.243,8.811s-10.035-7.153-8.811-13.243
					c1.224-6.09,7.153-10.035,13.243-8.811C132.178,61.827,136.123,67.756,134.899,73.846z"/>
				<path style="fill:#E16536;" d="M132.819,83.967c-0.993,4.941-5.804,8.142-10.745,7.149c-4.941-0.993-8.142-5.804-7.149-10.745
					c0.993-4.941,5.804-8.142,10.745-7.149C130.611,74.215,133.812,79.025,132.819,83.967z"/>
			</g>
			<g>
				<g>
					<g>
						<path style="fill:#ECAC69;" d="M140.422,104.559c0,0,3.119-2.423,5.399,0.454c3.464,4.373-2.598,12.291-7.869,8.214
							L140.422,104.559z"/>
						
							<path style="fill:none;stroke:#000000;stroke-width:0.5074;stroke-linecap:round;stroke-linejoin:round;stroke-miterlimit:10;" d="
							M143.577,107.496c0,0-1.744-0.548-3.63,3.126"/>
					</g>
				</g>
			</g>
			<g>
				<g>
					<g>
						<path style="fill:#ECAC69;" d="M107.448,104.843c0,0-3.594-2.707-5.874,0.171c-3.464,4.373,2.598,12.291,7.869,8.214
							L107.448,104.843z"/>
						
							<path style="fill:none;stroke:#000000;stroke-width:0.5074;stroke-linecap:round;stroke-linejoin:round;stroke-miterlimit:10;" d="
							M103.818,107.496c0,0,1.744-0.548,3.63,3.126"/>
					</g>
				</g>
			</g>
			
				<ellipse transform="matrix(0.9258 -0.3781 0.3781 0.9258 -27.0515 53.9357)" style="fill:#733D3C;" cx="123.848" cy="95.868" rx="20.03" ry="20.03"/>
			<polygon style="fill:#ECAC69;" points="118.569,122.156 117.201,143.128 130.753,143.128 128.772,121.928 			"/>
			<path d="M118.42,123.57c0.449,0.258,11.271,8.193,11.271,8.193l-0.919-9.836L118.42,123.57z"/>
			<path style="fill:#ECAC69;" d="M106.941,94.837c0,0-2.104,30.044,16.176,30.044c19.77,0,17.697-30.044,17.697-30.044
				s-0.112-13.529-17.088-13.529C108.163,81.308,106.941,94.837,106.941,94.837z"/>
			<g>
				
					<polyline style="fill:none;stroke:#000000;stroke-width:0.5074;stroke-linecap:round;stroke-linejoin:round;stroke-miterlimit:10;" points="
					122.165,108.251 122.165,110.59 123.428,110.614 				"/>
				<path d="M126.845,97.705c0,0-0.448,1.641,2.103,1.676c1.937,0.027,4.297,0.531,5.412,0.768c0.633,0.135,1.315-0.111,1.615-0.579
					l0,0c0.242-0.378,0.189-0.825-0.15-1.137c-0.688-0.633-3.234-2.085-5.59-2.143C127.21,96.216,126.845,97.705,126.845,97.705z"/>
				<path d="M119.057,97.744c0,0,0.448,1.641-2.103,1.676c-1.937,0.027-4.297,0.531-5.412,0.768
					c-0.633,0.135-1.315-0.111-1.615-0.579l0,0c-0.242-0.378-0.189-0.825,0.15-1.137c0.688-0.632,3.234-2.085,5.59-2.143
					C118.692,96.256,119.057,97.744,119.057,97.744z"/>
				<g>
					<path style="fill:#FFFFFF;" d="M117.962,113.538h9.926c0,0-0.806,2.779-4.963,2.779
						C118.768,116.317,117.962,113.538,117.962,113.538z"/>
				</g>
				
					<path style="fill:none;stroke:#000000;stroke-width:0.8957;stroke-linecap:round;stroke-linejoin:round;stroke-miterlimit:10;" d="
					M117.962,105.357c0,0-1.521-1.655-3.912,0"/>
				
					<path style="fill:none;stroke:#000000;stroke-width:0.8957;stroke-linecap:round;stroke-linejoin:round;stroke-miterlimit:10;" d="
					M131.801,105.357c0,0-1.521-1.655-3.912,0"/>
			</g>
			<path style="fill:#733D3C;" d="M118.606,78.549c0,0,5.696,17.066,22.103,16.124C140.709,94.673,144.262,72.885,118.606,78.549z"
				/>
			<path style="fill:#733D3C;" d="M127.737,78.549c0,0-5.696,17.066-22.103,16.124C105.633,94.673,106.589,72.047,127.737,78.549z"
				/>
		</g>
	</g>
	<g>
		<g>
			<g>
				<g>
					<polygon style="fill:#EBAB69;" points="359.064,382.116 357.886,431.209 344.336,427.903 343.136,380.971 					"/>
					<g>
						<rect x="316.505" y="445.156" style="fill:#1E0A05;" width="44.077" height="5.525"/>
						<g>
							<path style="fill:#3E3EAB;" d="M351.597,427.698c0,0,1.126-9.386-9.198-9.01c0,0-7.133-0.188-5.632,9.01
								c0,0-18.244,6.254-20.261,17.459h44.077l-1.632-17.364c-0.113-1.208-1.312-2.003-2.469-1.637L351.597,427.698z"/>
							
								<path style="fill:none;stroke:#FFFFFF;stroke-width:1.117;stroke-linecap:round;stroke-linejoin:round;stroke-miterlimit:10;" d="
								M336.767,427.235c0,0,7.033-0.98,9.84,3.974"/>
							
								<path style="fill:none;stroke:#FFFFFF;stroke-width:1.117;stroke-linecap:round;stroke-linejoin:round;stroke-miterlimit:10;" d="
								M332.336,429.551c0,0,7.033-1.443,9.84,3.511"/>
							
								<path style="fill:none;stroke:#FFFFFF;stroke-width:1.117;stroke-linecap:round;stroke-linejoin:round;stroke-miterlimit:10;" d="
								M328.704,431.837c0,0,7.033-1.443,9.84,3.511"/>
						</g>
					</g>
				</g>
				<path style="fill:#3C2D52;" d="M341.16,210.681l-2.64,20.314c-0.606,4.666-0.91,9.366-0.91,14.071v167.725h24.402l8.72-202.11
					H341.16z"/>
			</g>
			<g>
				<g>
					<polygon style="fill:#EBAB69;" points="376.602,382.116 377.78,431.209 391.33,427.903 392.53,380.971 					"/>
					<g>
						
							<rect x="375.083" y="445.156" transform="matrix(-1 -1.224647e-16 1.224647e-16 -1 794.2439 895.838)" style="fill:#1E0A05;" width="44.077" height="5.525"/>
						<g>
							<path style="fill:#3E3EAB;" d="M384.069,427.698c0,0-1.126-9.386,9.198-9.01c0,0,7.133-0.188,5.632,9.01
								c0,0,18.243,6.254,20.261,17.459h-44.077l1.632-17.364c0.114-1.208,1.312-2.003,2.469-1.637L384.069,427.698z"/>
							
								<path style="fill:none;stroke:#FFFFFF;stroke-width:1.117;stroke-linecap:round;stroke-linejoin:round;stroke-miterlimit:10;" d="
								M398.899,427.235c0,0-7.033-0.98-9.84,3.974"/>
							
								<path style="fill:none;stroke:#FFFFFF;stroke-width:1.117;stroke-linecap:round;stroke-linejoin:round;stroke-miterlimit:10;" d="
								M403.33,429.551c0,0-7.033-1.443-9.84,3.511"/>
							
								<path style="fill:none;stroke:#FFFFFF;stroke-width:1.117;stroke-linecap:round;stroke-linejoin:round;stroke-miterlimit:10;" d="
								M406.962,431.837c0,0-7.033-1.443-9.84,3.511"/>
						</g>
					</g>
				</g>
				<g>
					<path style="fill:#3C2D52;" d="M393.563,210.681l2.64,20.314c0.606,4.666,0.91,9.366,0.91,14.071v167.725h-24.402l-8.72-202.11
						H393.563z"/>
					<g>
						
							<line style="fill:none;stroke:#1E0A05;stroke-width:0.6895;stroke-linecap:round;stroke-linejoin:round;stroke-miterlimit:10;" x1="367.297" y1="297.604" x2="366.608" y2="243.713"/>
						
							<line style="fill:none;stroke:#1E0A05;stroke-width:0.6895;stroke-linecap:round;stroke-linejoin:round;stroke-miterlimit:10;" x1="358.065" y1="245.119" x2="376.451" y2="242.093"/>
					</g>
				</g>
			</g>
		</g>
		<g>
			<g>
				<path style="fill:#3E3EAB;" d="M400.87,139.329l-25.159-10.572h-0.046h-16.541h-0.046l-25.159,10.572
					c-1.726,0.848-2.689,2.73-2.368,4.626l8.59,38.524l1.018,28.203h11.581h29.307h11.581l1.018-28.203l8.59-38.524
					C403.559,142.058,402.596,140.177,400.87,139.329z"/>
				<g>
					
						<polyline style="fill:none;stroke:#1E0A05;stroke-width:0.6895;stroke-linecap:round;stroke-linejoin:round;stroke-miterlimit:10;" points="
						353.111,132.285 360.92,140.507 367.372,134.442 373.198,140.507 380.135,131.587 					"/>
					
						<line style="fill:none;stroke:#1E0A05;stroke-width:0.6895;stroke-linecap:round;stroke-linejoin:round;stroke-miterlimit:10;" x1="367.372" y1="134.442" x2="367.372" y2="211.021"/>
				</g>
			</g>
			<g>
				<path style="fill:#EBAB69;" d="M329.331,215.532l10.811,9.198c0,0,9.096-6.461,6.132-14.05L331.491,198.7L329.331,215.532z"/>
				<g>
					<path style="fill:#3E3EAB;" d="M327.539,147.463l-12.968,48.305c-1.059,4.692,0.588,9.583,4.269,12.68l10.491,7.084
						l11.501-13.959l-5.164-4.99l14.045-44.941c1.435-5.223-3.494-10.663-8.609-12.443l0,0
						C334.978,137.07,328.437,141.04,327.539,147.463z"/>
					
						<line style="fill:none;stroke:#1E0A05;stroke-width:0.6895;stroke-linecap:round;stroke-linejoin:round;stroke-miterlimit:10;" x1="335.079" y1="159.771" x2="340.142" y2="182.478"/>
				</g>
			</g>
			<g>
				<path style="fill:#EBAB69;" d="M405.132,215.532l-10.811,9.198c0,0-9.096-6.461-6.132-14.05l14.784-11.981L405.132,215.532z"/>
				<g>
					<path style="fill:#3E3EAB;" d="M406.925,147.463l12.968,48.305c1.059,4.692-1.623,9.583-5.304,12.68l-9.457,7.084l-11.5-13.959
						l5.164-4.99l-14.045-44.941c-1.435-5.223,3.494-10.663,8.609-12.443h0C399.486,137.07,406.027,141.04,406.925,147.463z"/>
					
						<line style="fill:none;stroke:#1E0A05;stroke-width:0.6895;stroke-linecap:round;stroke-linejoin:round;stroke-miterlimit:10;" x1="399.385" y1="159.771" x2="394.321" y2="182.478"/>
				</g>
			</g>
		</g>
		<g>
			<g>
				<path style="fill:#EBAB69;" d="M350.48,91.483c0,0-3.465-2.692-5.997,0.505c-3.848,4.858,2.886,13.654,8.742,9.125
					L350.48,91.483z"/>
				
					<path style="fill:none;stroke:#1E0A05;stroke-width:0.6895;stroke-linecap:round;stroke-linejoin:round;stroke-miterlimit:10;" d="
					M346.083,94.931c0,0,3.245-0.085,5.144,3.614"/>
			</g>
			<g>
				<path style="fill:#EBAB69;" d="M384.431,91.689c0,0,3.395-2.638,5.876,0.494c3.77,4.76-2.828,13.379-8.566,8.941L384.431,91.689
					z"/>
				
					<path style="fill:none;stroke:#1E0A05;stroke-width:0.6895;stroke-linecap:round;stroke-linejoin:round;stroke-miterlimit:10;" d="
					M388.608,94.931c0,0-2.968-0.085-4.866,3.614"/>
			</g>
			
				<ellipse transform="matrix(0.2318 -0.9728 0.9728 0.2318 201.7431 421.5222)" style="fill:#733D3C;" cx="367.762" cy="83.026" rx="20.846" ry="20.846"/>
			<polygon style="fill:#EBAB69;" points="360.253,108.469 359.079,128.756 367.372,134.442 375.666,128.756 373.818,107.963 			"/>
			<path d="M360.707,112.029c0.524,0.255,14.252,8.77,14.252,8.77l-0.854-10.528L360.707,112.029z"/>
			<path style="fill:#EBAB69;" d="M350.716,82.652c0,0-2.582,30.528,16.287,30.906c20.392,0.409,17.818-30.906,17.818-30.906
				s-0.112-16.025-17.205-16.025C351.947,66.626,350.716,82.652,350.716,82.652z"/>
			<path style="fill:#733D3C;" d="M352.102,74.23c0,0,13.99-3.913,32.44,0c0,0-1.714-9.194-16.22-9.194
				C353.815,65.036,352.102,74.23,352.102,74.23z"/>
			<path style="fill:#733D3C;" d="M353.489,73.26c0,0,1.555,3.992-2.773,9.392l-1.317-3.626l3.837-8.709"/>
			<path style="fill:#733D3C;" d="M382.271,73.26c0,0-1.555,3.992,2.773,9.392l1.317-3.626l-3.837-8.709"/>
			<g>
				<path d="M361.278,92.197c0,0.802-0.65,1.452-1.453,1.452c-0.802,0-1.453-0.65-1.453-1.452c0-0.802,0.65-1.453,1.453-1.453
					C360.628,90.744,361.278,91.395,361.278,92.197z"/>
				<path d="M375.796,92.197c0,0.802-0.65,1.452-1.453,1.452c-0.802,0-1.453-0.65-1.453-1.452c0-0.802,0.65-1.453,1.453-1.453
					C375.146,90.744,375.796,91.395,375.796,92.197z"/>
				
					<path style="fill:none;stroke:#1E0A05;stroke-width:0.6895;stroke-linecap:round;stroke-linejoin:round;stroke-miterlimit:10;" d="
					M365.635,94.931l0.031,2.507c0.005,0.426,0.348,0.771,0.774,0.779l1.124,0.021"/>
				<path style="fill:#733D3C;" d="M370.763,84.237c0,0-0.447,1.638,2.099,1.673c1.933,0.027,4.289,0.53,5.402,0.767
					c0.632,0.135,1.313-0.111,1.612-0.578l0,0c0.242-0.377,0.189-0.823-0.15-1.135c-0.686-0.631-3.228-2.081-5.58-2.139
					C371.127,82.751,370.763,84.237,370.763,84.237z"/>
				<path style="fill:#733D3C;" d="M362.989,84.276c0,0,0.447,1.638-2.099,1.673c-1.933,0.027-4.289,0.53-5.402,0.767
					c-0.632,0.135-1.313-0.111-1.612-0.578l0,0c-0.242-0.377-0.189-0.823,0.15-1.135c0.686-0.631,3.228-2.081,5.58-2.139
					C362.625,82.791,362.989,84.276,362.989,84.276z"/>
				<path style="fill:#733D3C;" d="M363.058,99.993h7.102c1.166,0,2.256,0.581,2.906,1.549l0.206,0.307
					c0.295,0.44-0.02,1.031-0.549,1.031h-12.202c-0.493,0-0.813-0.519-0.591-0.959l0,0
					C360.525,100.739,361.735,99.993,363.058,99.993z"/>
				
					<line style="fill:none;stroke:#1E0A05;stroke-width:0.6895;stroke-linecap:round;stroke-linejoin:round;stroke-miterlimit:10;" x1="365.24" y1="104.63" x2="368.359" y2="104.63"/>
			</g>
			<path style="fill:#733D3C;" d="M356.074,73.415c0,0,10.526-2.226,18.28,2.644c8.821,5.539,15.951-0.503,14.8-7.611
				c-1.186-7.325-11.284-9.008-20.833-7.625c-7.706,1.116-12.248,4.941-12.248,4.941V73.415z"/>
			<path style="fill:#733D3C;" d="M356.074,65.763c0,0-15.981,0.864-8.662,21.799L356.074,65.763z"/>
		</g>
	</g>
	
		<line style="fill:none;stroke:#B5B5B5;stroke-width:1.0375;stroke-miterlimit:10;" x1="30.831" y1="450.682" x2="718.23" y2="450.682"/>
</g>
</svg>
